<svg xmlns="http://www.w3.org/2000/svg" xmlns:vectornator="http://vectornator.io" xml:space="preserve" fill-rule="nonzero" width="100%" height="100%" stroke-linecap="round" stroke-linejoin="round" stroke-miterlimit="10" clip-rule="evenodd" version="1.1" viewBox="0 0 26.158 31.978"><clipPath id="a"><path d="M0 0h26.158v31.978H0z"/></clipPath><g vectornator:layerName="Untitled" clip-path="url(#a)"><path d="M2.051 9.035a2.001 2.001 0 0 0-2.001 2v8.006a2.001 2.001 0 0 0 4.003 0v-8.005A2.001 2.001 0 0 0 2.05 9.035Zm22.015 0a2.001 2.001 0 0 0-2.001 2v8.006a2.001 2.001 0 1 0 4.002 0v-8.005a2.001 2.001 0 0 0-2-2.001ZM5.053 25.045h2.002v5.004a2.001 2.001 0 0 0 4.002 0v-5.004h4.003v5.004a2.001 2.001 0 1 0 4.003 0v-5.004h2.001v-15.01H5.054v15.01ZM17.785 2.582l1.028-1.78a.5.5 0 1 0-.868-.5l-1.002 1.735a7.96 7.96 0 0 0-3.884-1.008 7.955 7.955 0 0 0-3.885 1.009L8.171.3a.5.5 0 0 0-.867.5l1.029 1.781a7.99 7.99 0 0 0-3.28 6.453h16.011a7.99 7.99 0 0 0-3.28-6.453Zm-7.728 3.45a1 1 0 1 1 0-2 1 1 0 0 1 0 2Zm6.004 0a1 1 0 1 1 0-2 1 1 0 0 1 0 2Z" fill="#85c808" fill-rule="evenodd" opacity="1"/></g></svg>