<svg xmlns="http://www.w3.org/2000/svg" xmlns:vectornator="http://vectornator.io" xml:space="preserve" fill-rule="nonzero" width="100%" height="100%" stroke-linecap="round" stroke-linejoin="round" stroke-miterlimit="10" clip-rule="evenodd" version="1.1" viewBox="0 0 512.019 511.988"><g vectornator:layerName="Untitled" fill-rule="evenodd" stroke="none"><path d="M512.019 255.998c0 141.379-114.611 255.99-255.99 255.99-141.379 0-255.99-114.61-255.99-255.99S114.65.008 256.029.008c141.379 0 255.99 114.611 255.99 255.99Z" fill="#555" opacity="1"/><path d="M219.63 163.41c-13.735.18-25.561 2.873-37.179 8.661-29.668 14.78-46.802 45.904-46.802 85.118 0 39.306 16.854 69.504 46.627 83.631 8.043 3.816 16.105 5.893 28.344 7.348 6.195.251 11.987.688 18.021 0 12.239-1.455 20.301-3.532 28.344-7.348 29.773-14.127 46.627-44.325 46.627-83.631 0-39.215-17.134-70.338-46.802-85.118-11.618-5.788-23.444-8.48-37.179-8.661h-.001Zm11.81 27.644c17.814 4.748 30.74 20.821 35.692 44.265 3.478 16.465 2.53 35.491-2.449 50.476-7.755 23.337-24.591 36.516-45.053 36.304-20.461.212-37.297-12.967-45.052-36.304-4.98-14.985-5.928-34.011-2.449-50.476 4.952-23.444 17.878-39.517 35.692-44.265 8.077-1.712 16.125-1.404 23.62 0h-.001ZM101.331 163.41c-9.835 0-17.808 7.973-17.808 17.808s7.973 17.808 17.808 17.808 17.808-7.973 17.808-17.808-7.973-17.808-17.808-17.808ZM84.69 217.748v130.79h33.281v-130.79H84.69ZM352 348.264c-14.259-2.442-27.973-4.334-39.614-10.941-.155-.136 6.872-26.395 7.19-26.863 18.71 6.353 45.049 15.265 62.808 7.101 9.682-4.844 14.451-13.797 12.849-24.123-1.802-11.616-9.847-18.31-31.923-26.563-24.622-9.205-39.063-20.521-44.964-35.234-2.902-7.234-3.864-16.445-2.559-24.49 3.63-22.375 21.062-37.942 47.813-42.699 7.75-1.378 24.324-1.393 32.479-.028 11.753 1.966 25.229 6.411 25.229 8.321 0 .705-6.887 24.984-7.239 25.522-11.62-4.602-24.651-7.892-35.68-7.955-15.607-.218-32.529 9.045-29.546 25.403 2.113 10.252 8.656 15.257 32.736 25.042 17.735 7.207 26.245 12.178 33.541 19.591 10.136 10.123 13.34 21.998 13.415 33.769.027 9.805-.887 14.379-4.386 21.949-8.499 18.387-25.826 29.074-51.85 31.978-4.876.544-16.363.669-20.299.22Z" fill="#fff" opacity="1"/></g></svg>