<svg xmlns="http://www.w3.org/2000/svg" xmlns:xlink="http://www.w3.org/1999/xlink" viewBox="0 0 24 24" xmlns:v="https://vecta.io/nano"><path d="M19.681 18.034c.218-.468.319-1.125.319-2.034 0-3.247-1.496-5.12-2.697-6.625C16.575 8.463 16 7.743 16 7l.001-.233c.008-1.38.024-4.253-1.502-5.788C13.853.33 13.012 0 12 0 9.899 0 8.5 1.021 8.5 6c0 1.371-.577 2.493-1.187 3.682l-.776 1.63C6.075 12.447 5 15.227 5 16.5a.5.5 0 0 0 .057.232l3.539 6.749a.5.5 0 0 0 .384.26c.02.002.04.004.06.004a.51.51 0 0 0 .377-.169C9.639 23.328 11.112 23 12 23h3.392a.5.5 0 0 0 .349-.142l4.108-4a.5.5 0 0 0-.167-.825z" fill="#1a1a1a"/><path d="M7.313 9.932C7.923 8.743 8.5 7.621 8.5 6.25c0-4.979 1.399-6 3.5-6 1.012 0 1.853.33 2.499.979 1.334 1.341 1.489 3.705 1.502 5.201.001-1.467-.087-4.027-1.502-5.451C13.853.33 13.012 0 12 0 9.899 0 8.5 1.021 8.5 6c0 1.371-.577 2.493-1.187 3.682l-.776 1.63C6.075 12.447 5 15.227 5 16.5c0 .023.013.043.016.065.085-1.336 1.078-3.916 1.521-5.004.232-.57.509-1.109.776-1.63z" fill="#fff" opacity=".2"/><path d="M19.858 18.401c.062.064.096.141.117.221.042-.163.008-.342-.117-.471-.03-.031-.068-.047-.104-.069l-.074.201a.5.5 0 0 1 .177.118z" fill="#0099d8"/><path d="M16 7.25c0 .743.575 1.463 1.303 2.375 1.19 1.491 2.665 3.348 2.692 6.539L20 16c0-3.247-1.496-5.12-2.697-6.625-.726-.909-1.299-1.628-1.302-2.37L16 7.25z" fill="#fff" opacity=".2"/><path d="M16 7l.001-.57v.337L16 7z" fill="#0099d8"/><path d="M16.129 16.812c-.012-2.435-.343-5.173-2.267-9.106-.952.644-2.7 1.153-2.91 1.153-.379 0-1.205-.27-1.812-.806-.25.736-.595 1.418-.938 2.086l-.739 1.55c-.604 1.485-1.295 3.44-1.434 4.478.423.282.718.892 1.044 1.573.337.706.72 1.506 1.212 1.85.902.628 1.369 1.523 1.491 2.337l1.267.064c1.22 0 2.874-.248 4.097-.99.069-1.323.301-3.444.988-4.188z" fill="#fff"/><path d="M19.995 16.164c-.012.82-.11 1.431-.314 1.869.027.011.049.034.074.049.164-.451.245-1.041.245-1.833 0-.03-.005-.056-.005-.086z" fill="#0099d8"/><path d="M9.777 21.926l1.267.064c1.22 0 2.874-.248 4.097-.99v-.25c-1.223.742-2.877.99-4.097.99-.491 0-.999-.034-1.342-.068" opacity=".1"/><path d="M15.744 22.608a.5.5 0 0 1-.349.142h-3.392c-.888 0-2.361.328-2.583.576a.51.51 0 0 1-.377.169c-.02 0-.04-.001-.06-.004a.5.5 0 0 1-.384-.26L5.06 16.482c-.027-.052-.033-.11-.041-.167l-.016.185a.5.5 0 0 0 .057.232l3.539 6.749a.5.5 0 0 0 .384.26c.02.002.04.004.06.004a.51.51 0 0 0 .377-.169c.222-.248 1.695-.576 2.583-.576h3.392a.5.5 0 0 0 .349-.142l4.108-4c.134-.131.172-.317.127-.486-.022.086-.059.169-.127.236l-4.108 4z" opacity=".3"/><path d="M20.926 19.074c-.207-.136-.421-.276-.573-.428-.088-.088-.048-.497-.026-.717.042-.422.084-.857-.199-1.17-.107-.118-.303-.259-.628-.259-.268 0-.463.212-.475.479 0 .007.003.014.003.021H17a.5.5 0 0 0-.5-.5c-1.483 0-1.5 5.445-1.506 5.564-.028.298-.093.998.354 1.489.27.296.657.447 1.151.447 1.298 0 1.927-.669 2.536-1.315l.318-.331c.253-.253.749-.434 1.187-.594.718-.262 1.46-.533 1.46-1.26 0-.721-.595-1.112-1.074-1.426zm-12.64.516c-.493-.343-.875-1.144-1.212-1.85C6.627 16.807 6.241 16 5.5 16c-.936 0-1.14.841-1.25 1.292l-.081.334c-.074.046-.354.101-.538.138C3.021 17.885 2 18.087 2 19a3.82 3.82 0 0 0 .083.726c.077.416.15.809-.067 1.649A.49.49 0 0 0 2 21.5c0 1.202 1.867 1.358 2.983 1.451l.439.043c.154.024.476.173.788.316.667.308 1.496.69 2.291.69.571 0 1.028-.369 1.223-.987.302-.963-.098-2.491-1.437-3.423z" fill="#fdb515"/><path d="M3.553 18.014c.191-.037.48-.092.557-.138l.083-.334c.113-.452.325-1.292 1.293-1.292.767 0 1.166.807 1.628 1.74.349.706.745 1.506 1.254 1.85a3.7 3.7 0 0 1 1.141 1.209 3.61 3.61 0 0 0-1.223-1.459c-.493-.343-.875-1.144-1.212-1.85C6.627 16.807 6.241 16 5.5 16c-.936 0-1.14.841-1.25 1.292l-.081.334c-.074.046-.354.101-.538.138-.53.105-1.368.273-1.58.913.331-.437 1.033-.573 1.502-.663z" fill="#fff" opacity=".2"/><path d="M19.5 15.5c-.096 0-.18.034-.256.081l-3.339-5.463c-.365-1.03-.831-2.123-1.461-3.346a.5.5 0 0 0-.673-.216.5.5 0 0 0-.215.674c2.257 4.387 2.444 7.125 2.445 9.743-.006.105-.042 1.042.497 1.611.258.272.604.417 1.002.417l.176.001.17.001c.508 0 1.058-.039 1.488-.465.46-.456.665-1.238.665-2.537a.5.5 0 0 0-.5-.5z" fill="#1a1a1a"/><path d="M19.335 18.287c-.43.427-.98.465-1.488.465a19.49 19.49 0 0 1-.17-.001l-.176-.001c-.398 0-.744-.144-1.002-.417-.403-.427-.485-1.059-.497-1.393v.032c-.006.105-.042 1.042.497 1.611.258.272.604.417 1.002.417l.176.001.17.001c.508 0 1.058-.039 1.488-.465.46-.456.665-1.238.665-2.537 0-.016-.008-.03-.009-.045-.023 1.167-.223 1.902-.656 2.332z" opacity=".3"/><path d="M13 3.042c-.58 0-1 .622-1 1.479S12.42 6 13 6s1-.622 1-1.479-.42-1.479-1-1.479z" fill="#fff"/><ellipse cx="13" cy="4.888" rx=".454" ry=".888"/><path d="M10 3.042c-.58 0-1 .622-1 1.479S9.42 6 10 6s1-.622 1-1.479-.42-1.479-1-1.479z" fill="#fff"/><linearGradient gradientUnits="userSpaceOnUse" id="A" x1="10.383" x2="17.165" y1="6.81" y2="13.591"><stop offset="0" stop-opacity=".1"/><stop offset="1" stop-opacity="0"/></linearGradient><path d="M13.802 7.742c-.963.626-2.643 1.116-2.849 1.116-.379 0-1.205-.27-1.812-.806l6.782 6.782c-.161-1.936-.669-4.138-2.12-7.092z" fill="url(#A)"/><ellipse cx="10" cy="4.871" rx=".445" ry=".871"/><g fill="#fdb515"><use xlink:href="#E"/><use xlink:href="#E"/></g><path d="M20.54 21.51c-.437.16-.933.34-1.187.594l-.318.331c-.608.646-1.238 1.315-2.536 1.315-.494 0-.881-.15-1.151-.447-.293-.322-.359-.725-.367-1.054-.022.345-.009.891.367 1.304.27.296.657.447 1.151.447 1.298 0 1.927-.669 2.536-1.315l.318-.331c.253-.253.749-.434 1.187-.594.718-.262 1.46-.533 1.46-1.26 0-.036-.017-.062-.02-.097-.1.61-.776.865-1.44 1.107zM9.723 22.763c-.194.618-.651.987-1.223.987-.794 0-1.624-.382-2.291-.69l-.788-.316c-.099-.016-.253-.027-.439-.043-1.081-.09-2.85-.248-2.962-1.349l-.005.023A.49.49 0 0 0 2 21.5c0 1.202 1.867 1.358 2.983 1.451l.439.043c.154.024.476.173.788.316.667.308 1.496.69 2.291.69.571 0 1.028-.369 1.223-.987a2.34 2.34 0 0 0 .086-.852 2.21 2.21 0 0 1-.086.602zM10.989 8.75c-.56 0-2.171-.881-2.488-1.756C8.5 7.937 10.391 9 11 9c.295 0 3.5-1.113 3.5-2 0-.019-.01-.035-.011-.054-.475.855-3.224 1.804-3.499 1.804z" opacity=".1"/><linearGradient gradientUnits="userSpaceOnUse" id="B" x1="17.862" x2="21.759" y1="17.22" y2="21.117"><stop offset="0" stop-opacity=".1"/><stop offset="1" stop-opacity="0"/></linearGradient><path d="M20.926 19.074c-.207-.136-.421-.276-.573-.428-.088-.088-.048-.497-.026-.717.042-.422.084-.857-.199-1.17-.036-.04-.094-.078-.157-.113-.063.91-.261 1.518-.636 1.89-.43.427-.98.465-1.488.465a19.49 19.49 0 0 1-.17-.001L17.5 19c-.398 0-.744-.144-1.002-.417l3.421 3.421.621-.245c.718-.262 1.46-.533 1.46-1.26 0-.721-.595-1.112-1.074-1.426z" fill="url(#B)"/><linearGradient gradientUnits="userSpaceOnUse" id="C" x1="5.245" x2="23.086" y1="10.06" y2="18.379"><stop offset="0" stop-color="#fff" stop-opacity=".2"/><stop offset="1" stop-color="#fff" stop-opacity="0"/></linearGradient><path d="M20.926 19.074c-.207-.136-.421-.276-.573-.428-.088-.088-.048-.497-.026-.717.042-.422.084-.857-.199-1.17-.034-.038-.095-.074-.148-.111L20 16c0-3.247-1.496-5.12-2.697-6.625C16.575 8.463 16 7.743 16 7l.001-.233c.008-1.38.024-4.253-1.502-5.788C13.853.33 13.012 0 12 0 9.899 0 8.5 1.021 8.5 6c0 1.371-.577 2.493-1.187 3.682l-.776 1.63c-.419 1.03-1.333 3.399-1.501 4.784-.54.227-.697.835-.785 1.197l-.081.334c-.074.046-.354.101-.538.138C3.021 17.885 2 18.087 2 19a3.82 3.82 0 0 0 .083.726c.077.416.15.809-.067 1.649A.49.49 0 0 0 2 21.5c0 1.202 1.867 1.358 2.983 1.451l.439.043c.154.024.476.173.788.316.667.308 1.496.69 2.291.69.342 0 .634-.145.862-.384.017-.015.04-.023.055-.04C9.639 23.328 11.112 23 12 23h3.061c.055.193.135.385.288.553.27.296.657.447 1.151.447 1.298 0 1.927-.669 2.536-1.315l.318-.331c.253-.253.749-.434 1.187-.594.718-.262 1.46-.533 1.46-1.26 0-.721-.595-1.112-1.074-1.426z" fill="url(#C)"/><defs ><path id="E" d="M11.598 5.01A.51.51 0 0 0 11.5 5c-1.075 0-3 1.008-3 2 0 .937 1.891 2 2.5 2 .295 0 3.5-1.113 3.5-2 0-1.308-2.221-1.854-2.902-1.99z"/></defs></svg>