<svg xmlns="http://www.w3.org/2000/svg" xml:space="preserve" fill-rule="nonzero" width="100%" height="100%" stroke-linecap="round" stroke-linejoin="round" stroke-miterlimit="10" clip-rule="evenodd" version="1.1" viewBox="0 0 404 404"><path d="M99.043 375.236c94.699 56.329 219.786 24.549 276.115-70.149 56.327-94.699 24.367-219.893-70.331-276.222C210.128-27.463 85.222 4.425 28.893 99.123c-56.328 94.699-24.548 219.785 70.15 276.113ZM164.44 30.014c27.889-6.165 57.173-5.627 85.368 2.09-19.672 4.692-40.689 16.168-61.647 33.305-10.36-11.789-18.267-23.587-23.721-35.395Zm164.236 49.247c20.059 20.985 34.509 46.461 42.51 73.729-12.979.843-27.227-.291-42.243-3.841 5.056-26.597 4.928-50.65-.267-69.888ZM297.679 64.74c11.887 15.389 14.34 43.76 7.832 77.324-13.505-4.854-27.739-11.363-42.231-19.493l34.399-57.831Zm-92.288 17.77c26.387-21.738 52.489-33.125 71.686-30.025l-34.399 57.831c-14.063-8.853-26.395-18.147-37.287-27.806ZM56.6 101.902c21.41-31.06 51.51-53.28 85.109-65.346 5.934 14.294 15.945 29.547 29.092 44.462-16.85 16.4-33.037 36.621-48.056 60.228L56.6 101.902Zm236.927 140.929c13.574-24.467 23.436-48.45 29.804-71.085 19.383 4.433 37.276 6.024 52.776 4.234 5.617 35.392.456 72.448-16.617 106.087l-65.963-39.236Zm-75.181-44.719 32.679-54.94c16.407 9.025 32.951 16.174 48.948 21.775-6.159 21.048-15.414 43.19-27.59 65.306l-54.037-32.141Zm-74.638-44.397c13.623-21.257 28.842-39.85 44.398-55.308 12.376 11.276 26.555 22.401 42.318 32.51l-32.68 54.94-54.036-32.142Zm-99.255-31.392 66.144 39.344c-13.862 24.54-23.939 48.884-30.523 71.881-19.094-4.507-36.806-5.99-52.199-4.381-5.509-35.572-.603-73.023 16.578-106.844Zm87.107 51.814 54.037 32.142-33.217 55.843c-16.226-8.918-32.662-16.248-48.479-21.741 6.086-21.336 15.376-43.946 27.659-66.244Zm41.423 100.239 33.216-55.843 54.217 32.249c-13.73 21.438-29.345 40.285-45.19 55.817-12.376-11.276-26.662-22.22-42.243-32.223Zm59.621 49.9c17.065-16.763 33.648-37.238 48.776-61.024l65.963 39.237c-21.518 31.239-51.905 53.534-85.975 65.564-5.932-14.294-15.69-29.15-28.764-43.777ZM98.363 263.265c13.506 4.853 27.452 11.436 41.87 19.278l-34.076 57.289c-11.6-15.462-14.086-43.365-7.794-76.567Zm62.473 31.533c13.774 8.927 26.214 18.039 36.925 27.591-26.172 21.377-51.879 32.51-71.002 29.698l34.077-57.289ZM33.084 252.083c12.69-.77 26.832.547 41.848 4.095-5.021 26.129-4.86 49.713.154 68.843-19.878-20.876-34.074-45.958-42.002-72.938Zm182.269 87.621c10.105 11.393 18.011 23.191 23.393 34.711-27.493 5.911-56.309 5.408-83.961-1.988 19.203-4.725 39.824-15.947 60.568-32.723Z" fill="#2980b9" fill-rule="evenodd" opacity="1"/></svg>